<svg xmlns="http://www.w3.org/2000/svg" version="1.1" xmlns:xlink="http://www.w3.org/1999/xlink" xmlns:svgjs="http://svgjs.dev/svgjs" width="1500" height="958" viewBox="0 0 1500 958"><g transform="matrix(1,0,0,1,-0.9090909090909918,0.8771076457190929)"><svg viewBox="0 0 396 253" data-background-color="#ffffff" preserveAspectRatio="xMidYMid meet" height="958" width="1500" xmlns="http://www.w3.org/2000/svg" xmlns:xlink="http://www.w3.org/1999/xlink"><g id="tight-bounds" transform="matrix(1,0,0,1,0.2400000000000091,6.027327205689545)"><svg viewBox="0 0 395.52 247.2" height="247.2" width="395.52"><g><svg></svg></g><g><svg viewBox="0 0 395.52 247.2" height="247.2" width="395.52"><mask id="945ed9f4-5f95-4fe1-b5e8-436af6ca45b4"><rect width="640" height="400" fill="white"></rect><g transform="matrix(1,0,0,1,137.94679670126018,37.08000000000001)"><svg viewBox="0 0 119.6264065974796 173.03999999999996" height="173.03999999999996" width="119.6264065974796"><g><svg viewBox="0 0 119.6264065974796 173.03999999999996" height="173.03999999999996" width="119.6264065974796"><g><svg viewBox="0 0 119.6264065974796 173.03999999999996" height="173.03999999999996" width="119.6264065974796"><g><svg viewBox="0 0 119.6264065974796 173.03999999999996" height="173.03999999999996" width="119.6264065974796"><g id="SvgjsG2613"><svg viewBox="0 0 119.6264065974796 173.03999999999996" height="173.03999999999996" width="119.6264065974796" id="SvgjsSvg2612"><g><svg viewBox="0 0 119.6264065974796 173.03999999999996" height="173.03999999999996" width="119.6264065974796"><g transform="matrix(1,0,0,1,0,0)"><svg width="119.6264065974796" viewBox="-2.05 -38.35 30.150000000000002 43.160000000000004" height="173.03999999999996" data-palette-color="#556970"><path d="M24.1-9.4L24.1-9.4Q24.1-6.88 22.74-4.54 21.39-2.2 18.47-0.7 15.55 0.81 10.84 0.81L10.84 0.81Q8.15 0.81 6.15 0.34 4.15-0.12 3.05-0.59 1.95-1.05 1.95-1.05L1.95-1.05 1.95-9.91 5.1-9.91 5.76-4.25Q5.81-3.96 6.08-3.61 6.35-3.27 6.59-3.15L6.59-3.15Q6.71-3.13 8.02-2.56 9.33-2 11.65-2L11.65-2Q14.84-2 16.92-3.56 18.99-5.13 18.99-7.91L18.99-7.91Q18.99-9.42 18.15-10.56 17.31-11.69 15.97-12.57 14.62-13.45 13.1-14.17 11.57-14.89 10.21-15.55L10.21-15.55Q8.15-16.53 6.4-17.64 4.64-18.75 3.56-20.39 2.49-22.02 2.49-24.56L2.49-24.56Q2.49-27.54 4-29.74 5.52-31.93 8.13-33.14 10.74-34.35 14.04-34.35L14.04-34.35Q16.72-34.35 18.77-33.83 20.83-33.3 22.41-32.79L22.41-32.79 22.85-32.64 22.85-24.85 20-24.85 19.24-29.64Q19.19-29.98 18.93-30.14 18.68-30.3 18.46-30.52L18.46-30.52Q18.26-30.66 17.25-31.15 16.24-31.64 14.11-31.64L14.11-31.64Q11.11-31.64 9.38-29.97 7.64-28.3 7.64-25.76L7.64-25.76Q7.64-23.46 9.44-21.95 11.23-20.43 14.6-19.14L14.6-19.14Q19.14-17.43 21.62-15.3 24.1-13.16 24.1-9.4Z" opacity="1" transform="matrix(1,0,0,1,0,0)" fill="black" class="wordmark-text-0" id="SvgjsPath2611" stroke-width="7" stroke="black" stroke-linejoin="round"></path></svg></g></svg></g></svg></g></svg></g><g></g></svg></g></svg></g></svg></g></mask><g transform="matrix(1,0,0,1,137.94679670126018,37.08000000000001)"><svg viewBox="0 0 119.6264065974796 173.03999999999996" height="173.03999999999996" width="119.6264065974796"><g><svg viewBox="0 0 119.6264065974796 173.03999999999996" height="173.03999999999996" width="119.6264065974796"><g><svg viewBox="0 0 119.6264065974796 173.03999999999996" height="173.03999999999996" width="119.6264065974796"><g><svg viewBox="0 0 119.6264065974796 173.03999999999996" height="173.03999999999996" width="119.6264065974796"><g id="textblocktransform"><svg viewBox="0 0 119.6264065974796 173.03999999999996" height="173.03999999999996" width="119.6264065974796" id="textblock"><g><svg viewBox="0 0 119.6264065974796 173.03999999999996" height="173.03999999999996" width="119.6264065974796"><g transform="matrix(1,0,0,1,0,0)"><svg width="119.6264065974796" viewBox="-2.05 -38.35 30.150000000000002 43.160000000000004" height="173.03999999999996" data-palette-color="#556970"><path d="M24.1-9.4L24.1-9.4Q24.1-6.88 22.74-4.54 21.39-2.2 18.47-0.7 15.55 0.81 10.84 0.81L10.84 0.81Q8.15 0.81 6.15 0.34 4.15-0.12 3.05-0.59 1.95-1.05 1.95-1.05L1.95-1.05 1.95-9.91 5.1-9.91 5.76-4.25Q5.81-3.96 6.08-3.61 6.35-3.27 6.59-3.15L6.59-3.15Q6.71-3.13 8.02-2.56 9.33-2 11.65-2L11.65-2Q14.84-2 16.92-3.56 18.99-5.13 18.99-7.91L18.99-7.91Q18.99-9.42 18.15-10.56 17.31-11.69 15.97-12.57 14.62-13.45 13.1-14.17 11.57-14.89 10.21-15.55L10.21-15.55Q8.15-16.53 6.4-17.64 4.64-18.75 3.56-20.39 2.49-22.02 2.49-24.56L2.49-24.56Q2.49-27.54 4-29.74 5.52-31.93 8.13-33.14 10.74-34.35 14.04-34.35L14.04-34.35Q16.72-34.35 18.77-33.83 20.83-33.3 22.41-32.79L22.41-32.79 22.85-32.64 22.85-24.85 20-24.85 19.24-29.64Q19.19-29.98 18.93-30.14 18.68-30.3 18.46-30.52L18.46-30.52Q18.26-30.66 17.25-31.15 16.24-31.64 14.11-31.64L14.11-31.64Q11.11-31.64 9.38-29.97 7.64-28.3 7.64-25.76L7.64-25.76Q7.64-23.46 9.44-21.95 11.23-20.43 14.6-19.14L14.6-19.14Q19.14-17.43 21.62-15.3 24.1-13.16 24.1-9.4Z" opacity="1" transform="matrix(1,0,0,1,0,0)" fill="#556970" class="wordmark-text-0" data-fill-palette-color="primary" id="text-0"></path></svg></g></svg></g></svg></g></svg></g><g></g></svg></g></svg></g></svg></g><g mask="url(#945ed9f4-5f95-4fe1-b5e8-436af6ca45b4)"><g transform="matrix(4.378571428571428, 0, 0, 4.378571428571428, 100.07407142857141, 1)"><svg xmlns="http://www.w3.org/2000/svg" data-name="Layer 1" viewBox="27.69 22 44.620000000000005 56" x="0" y="0" height="56" width="44.620000000000005" class="icon-none" data-fill-palette-color="accent" id="none"><path d="M27.69 73.75L30 78H64.31A8 8 0 0 0 72.31 70V66H64.31V70H39.78L53.12 50 39.78 30H64.31V34H72.31V30A8 8 0 0 0 64.31 22H30L27.74 26.27 43.5 50 29 71.72Z" fill="#aba944" data-fill-palette-color="accent"></path></svg></g></g></svg></g><defs></defs></svg><rect width="395.52" height="247.2" fill="none" stroke="none" visibility="hidden"></rect></g></svg></g></svg>